<svg id="Layer_1" data-name="Layer 1" xmlns="http://www.w3.org/2000/svg" xmlns:xlink="http://www.w3.org/1999/xlink" viewBox="0 0 40 38.01"><defs><linearGradient id="linear-gradient" x1="2.19" y1="38.43" x2="5.63" y2="7.26" gradientUnits="userSpaceOnUse"><stop offset="0" stop-color="#bd4f6c"/><stop offset="1" stop-color="#d7816a"/></linearGradient><linearGradient id="linear-gradient-2" x1="10.21" y1="39.32" x2="13.65" y2="8.14" xlink:href="#linear-gradient"/><linearGradient id="linear-gradient-3" x1="22.07" y1="40.63" x2="25.51" y2="9.45" xlink:href="#linear-gradient"/><linearGradient id="linear-gradient-4" x1="31.83" y1="41.7" x2="35.27" y2="10.53" xlink:href="#linear-gradient"/><linearGradient id="linear-gradient-5" x1="23.1" y1="46.3" x2="26.54" y2="15.13" xlink:href="#linear-gradient"/></defs><circle cx="5" cy="13" r="5" style="fill:url(#linear-gradient)"/><circle cx="14" cy="5" r="5" style="fill:url(#linear-gradient-2)"/><circle cx="26" cy="5" r="5" style="fill:url(#linear-gradient-3)"/><circle cx="35" cy="13" r="5" style="fill:url(#linear-gradient-4)"/><path d="M34.68,29.72c-1.74-2-3.2-3.78-5-5.82a8.49,8.49,0,0,0-3.5-2.64,4,4,0,0,0-.66-.18A10.07,10.07,0,0,0,24,21a8.39,8.39,0,0,0-1.58.1,4,4,0,0,0-.66.18,8.62,8.62,0,0,0-3.5,2.64c-1.74,2-3.2,3.78-5,5.82-2.62,2.62-5.84,5.52-5.24,9.58A6.28,6.28,0,0,0,12.72,44c1.46.3,6.12-.88,11.08-.88h.36c5,0,9.62,1.16,11.08.88a6.31,6.31,0,0,0,4.66-4.64C40.52,35.24,37.3,32.34,34.68,29.72Z" transform="translate(-4 -6)" style="fill:url(#linear-gradient-5)"/></svg>